<svg id="Layer_1" data-name="Layer 1" xmlns="http://www.w3.org/2000/svg" viewBox="0 0 93 108"><defs><style>.cls-1,.cls-2,.cls-3{fill:#fff;}.cls-1,.cls-2{stroke:#000;stroke-linecap:square;stroke-miterlimit:10;}.cls-2{stroke-width:18px;}</style></defs><title>namelogo</title><path class="cls-1" d="M94.5,84" transform="translate(-48 -30)"/><path class="cls-1" d="M94.5,84" transform="translate(-48 -30)"/><path class="cls-1" d="M94.5,84" transform="translate(-48 -30)"/><path class="cls-2" d="M49.9,130.39" transform="translate(-48 -30)"/><path class="cls-3" d="M64.59,66h8.82V82.08h.12L83.91,66h9.72L81.27,83.1l13,18.9H84.57l-11-17.46h-.12V102H64.59Zm6.6,34.32V67.68H66.81v32.64Z" transform="translate(-48 -30)"/><path class="cls-3" d="M97.71,66h14.52c6,0,10.8,4.44,10.8,10.08,0,3.36-1.38,5.46-3.9,7.38v.12c3.72,2.64,5.28,5.16,5.28,8.88,0,5-4,9.54-10.8,9.54H97.71Zm6.54,34.32V67.68H99.93v32.64Zm6.42-20a3.33,3.33,0,1,0,0-6.66h-4.2v6.66Zm1.14,13.8A3,3,0,0,0,115.17,91a3.17,3.17,0,0,0-3.36-3.18h-5.34v6.3Z" transform="translate(-48 -30)"/><polygon class="cls-3" points="0 28 93 3 93 0 0 25.07 0 28"/><polygon class="cls-3" points="0 108 93 83 93 80 0 105.07 0 108"/><text x="-48" y="-30"></text></svg>